<svg width="512" height="512" viewBox="0 0 512 512" fill="none" xmlns="http://www.w3.org/2000/svg">
  <defs>
    <linearGradient id="bg" x1="0" y1="0" x2="0" y2="512" gradientUnits="userSpaceOnUse">
      <stop offset="0" stop-color="#5B57E6"/>
      <stop offset="1" stop-color="#7C3AED"/>
    </linearGradient>
    <linearGradient id="note" x1="0" y1="0" x2="0" y2="252" gradientUnits="userSpaceOnUse">
      <stop offset="0" stop-color="#FDE047"/>
      <stop offset="1" stop-color="#FACC15"/>
    </linearGradient>
  </defs>

  <!-- App background (squircle) -->
  <rect width="512" height="512" rx="116" fill="url(#bg)"/>

  <!-- Sticky note (tilted), with soft shadow and a folded top-right corner -->
  <g transform="translate(146 168) rotate(-7 118 126)">
    <!-- shadow -->
    <path d="M0,28 Q0,8 20,8 L176,8 L236,68 L236,236 Q236,256 216,256 L20,256 Q0,256 0,236 Z"
          fill="#000000" opacity="0.20" transform="translate(8 14)"/>
    <!-- body -->
    <path d="M0,20 Q0,0 20,0 L176,0 L236,60 L236,232 Q236,252 216,252 L20,252 Q0,252 0,232 Z"
          fill="url(#note)"/>
    <!-- folded corner -->
    <path d="M176,0 L236,60 L188,60 Q176,60 176,48 Z" fill="#EAB308"/>
    <!-- text lines -->
    <g fill="#92400E" opacity="0.55">
      <rect x="34" y="92"  width="150" height="16" rx="8"/>
      <rect x="34" y="128" width="168" height="16" rx="8"/>
      <rect x="34" y="164" width="104" height="16" rx="8"/>
    </g>
  </g>

  <!-- Red map-pin pinning the note -->
  <g>
    <!-- shadow -->
    <path d="M296,156 A52,52 0 1 1 400,156 Q400,229 348,290 Q296,229 296,156 Z"
          fill="#000000" opacity="0.20" transform="translate(7 12)"/>
    <!-- pin body -->
    <path d="M296,156 A52,52 0 1 1 400,156 Q400,229 348,290 Q296,229 296,156 Z"
          fill="#F43F5E"/>
    <!-- pin highlight -->
    <path d="M315,140 A33,33 0 0 1 360,118" stroke="#FFFFFF" stroke-opacity="0.5" stroke-width="10" stroke-linecap="round" fill="none"/>
    <!-- inner hole -->
    <circle cx="348" cy="156" r="22" fill="#FFFFFF"/>
  </g>
</svg>
